<svg width="20" height="20" viewBox="0 0 20 20" fill="none" xmlns="http://www.w3.org/2000/svg">
<g clip-path="url(#clip0_78_28953)">
<path fill-rule="evenodd" clip-rule="evenodd" d="M3 0.899994C1.8402 0.899994 0.900002 1.8402 0.900002 2.99999V5.99999C0.900002 6.60751 1.39249 7.09999 2 7.09999C2.60751 7.09999 3.1 6.60751 3.1 5.99999V3.09999H16.9V16.9H3.1V14C3.1 13.3925 2.60751 12.9 2 12.9C1.39249 12.9 0.900002 13.3925 0.900002 14V17C0.900002 18.1598 1.8402 19.1 3 19.1H17C18.1598 19.1 19.1 18.1598 19.1 17V2.99999C19.1 1.8402 18.1598 0.899994 17 0.899994H3ZM8.22218 6.22218C8.65176 5.7926 9.34824 5.7926 9.77782 6.22218L12.6062 9.0506C12.8429 9.28723 12.9492 9.60483 12.9251 9.9142C12.9492 10.2236 12.8429 10.5412 12.6062 10.7778L9.77782 13.6062C9.34824 14.0358 8.65176 14.0358 8.22218 13.6062C7.79261 13.1767 7.79261 12.4802 8.22218 12.0506L9.1728 11.1H2C1.39249 11.1 0.900002 10.6075 0.900002 9.99999C0.900002 9.39247 1.39249 8.89999 2 8.89999H9.34436L8.22218 7.77781C7.79261 7.34823 7.79261 6.65175 8.22218 6.22218Z" fill="white"/>
</g>
<defs>
<clipPath id="clip0_78_28953">
<rect width="20" height="20" fill="white"/>
</clipPath>
</defs>
</svg>
